<svg xmlns="http://www.w3.org/2000/svg" viewBox="0 0 240 240" fill="none">
  <path d="M0 60A60 60 0 0 1 60 0v60Z" fill="#607FF3"/>
  <circle cx="90" cy="30" r="30" fill="#FE820E"/>
  <path d="M120 0h60v60a60 60 0 0 1-60-60Z" fill="#FFE0BF"/>
  <path d="M120 0h30a30 30 0 0 0 30 30v30a60 60 0 0 1-60-60Z" fill="#FE820E"/>
  <path d="m210 0 30 30-30 30-30-30Z" fill="#607FF3"/>
  <path d="m210 17 13 13-13 13-13-13Z" fill="#E8EAFE"/>
  <path d="M0 60h60v60Z" fill="#FE820E"/>
  <path d="M0 60v60h60Z" fill="#FFE0BF"/>
  <path d="M60 60h60v60a60 60 0 0 1-60-60Z" fill="#607FF3"/>
  <path d="M78 60h24v18h18v24A42 42 0 0 1 78 60Z" fill="#E8EAFE"/>
  <path d="M120 60a60 60 0 0 1 60 60 60 60 0 0 1-60-60Z" fill="#FE820E"/>
  <path d="M180 60a60 60 0 0 1-60 60 60 60 0 0 1 60-60Z" fill="#607FF3"/>
  <circle cx="210" cy="90" r="30" fill="#FFE0BF"/>
  <circle cx="210" cy="90" r="18" fill="#FE820E"/>
  <circle cx="210" cy="90" r="7" fill="#292621"/>
  <circle cx="30" cy="150" r="30" fill="#607FF3"/>
  <circle cx="30" cy="150" r="17" fill="#E8EAFE"/>
  <circle cx="30" cy="150" r="7" fill="#607FF3"/>
  <circle cx="75" cy="135" r="15" fill="#FE820E"/>
  <circle cx="105" cy="135" r="15" fill="#FFE0BF"/>
  <circle cx="75" cy="165" r="15" fill="#FFE0BF"/>
  <circle cx="105" cy="165" r="15" fill="#FE820E"/>
  <path d="M120 120h60l-60 60Z" fill="#E8EAFE"/>
  <path d="M180 120v60h-60Z" fill="#607FF3"/>
  <path d="M180 120a60 60 0 0 1 60 60h-60Z" fill="#FE820E"/>
  <path d="M180 145a35 35 0 0 1 35 35h-35Z" fill="#FFE0BF"/>
  <path d="M0 180h60v60a60 60 0 0 1-60-60Z" fill="#FE820E"/>
  <path d="M0 180h30a30 30 0 0 0 30 30v30a60 60 0 0 1-60-60Z" fill="#FFE0BF"/>
  <path d="m90 180 30 30-30 30-30-30Z" fill="#607FF3"/>
  <path d="m90 197 13 13-13 13-13-13Z" fill="#E8EAFE"/>
  <path d="M120 240a60 60 0 0 1 60-60v60Z" fill="#607FF3"/>
  <circle cx="210" cy="210" r="30" fill="#FE820E"/>
</svg>
