<svg xmlns="http://www.w3.org/2000/svg" viewBox="0 0 360 300" fill="none">
  <path d="M52 204C25 161 66 93 112 59s89-40 129-2 83 62 70 117-32 85-106 89-121-11-153-59Z" fill="#FFE0BF"/>
  <circle cx="278" cy="44" r="13" fill="#607FF3"/>
  <path d="M180 237c71 0 123-45 123-101S251 39 180 39 53 80 53 136" stroke="#B6AC9F" stroke-width="1.1" stroke-dasharray="3 5"/>
  <g transform="rotate(-7 133 83)">
    <rect x="60" y="63" width="160" height="46" rx="23" fill="#FFFCF8" stroke="#292621" stroke-width="1.5"/>
    <circle cx="84" cy="84" r="7" stroke="#607FF3" stroke-width="1.5"/><path d="m89 90 5 5" stroke="#607FF3" stroke-width="1.5" stroke-linecap="round"/>
    <path d="M106 82h72M106 90h47" stroke="#B6AC9F" stroke-width="2.3" stroke-linecap="round"/>
  </g>
  <path d="m213 197 65 60a13 13 0 0 0 18-19l-64-60Z" fill="#FE820E" stroke="#292621" stroke-width="1.7"/>
  <path d="m220 198 11-12M277 247l7 7" stroke="#292621" stroke-width="1.7" stroke-linecap="round"/>
  <circle cx="174" cy="157" r="68" fill="#607FF3" stroke="#292621" stroke-width="1.7"/>
  <circle cx="174" cy="157" r="53" fill="#FFFCF8" stroke="#292621" stroke-width="1.5"/>
  <path d="M138 127a44 44 0 0 1 39-14" stroke="#D7DCF4" stroke-width="3" stroke-linecap="round"/>
  <rect x="144" y="135" width="60" height="46" rx="10" fill="#FFE0BF" stroke="#292621" stroke-width="1.4"/>
  <circle cx="159" cy="156" r="6" fill="#FE820E"/>
  <path d="M158 162v5m14-14h19m-19 8h13" stroke="#292621" stroke-width="1.5" stroke-linecap="round"/>
  <circle cx="219" cy="111" r="19" fill="#FFFCF8" stroke="#292621" stroke-width="1.4"/>
  <path d="m210 111 6 6 12-14" stroke="#292621" stroke-width="1.8" stroke-linecap="round" stroke-linejoin="round"/>
  <g transform="rotate(10 72 216)">
    <rect x="24" y="198" width="98" height="35" rx="17.5" fill="#FFFCF8" stroke="#292621" stroke-width="1.4"/>
    <path d="M42 211h52M42 220h35" stroke="#A0AAD5" stroke-width="2.2" stroke-linecap="round"/>
  </g>
  <path d="m300 122 4 9 9 4-9 4-4 9-4-9-9-4 9-4Z" fill="#292621"/>
  <path d="M64 147h14m-7-7v14M154 268h10m-5-5v10" stroke="#607FF3" stroke-width="1.6" stroke-linecap="round"/>
  <circle cx="56" cy="263" r="8" fill="#FE820E"/>
  <path d="m270 281 22-7 9-14" stroke="#8B97C9" stroke-width="1.2"/><circle cx="301" cy="260" r="2" fill="#FFFCF8" stroke="#8B97C9"/>
</svg>
